<!DOCTYPE html>
<html lang="zh-CN">
<head>
  <meta charset="utf-8" />
  <meta name="viewport" content="width=device-width,initial-scale=1" />
  <title>20世纪中华歌坛名人百集珍藏版 - 佟铁鑫</title>
  <style>
    html,body{
      height:100%;
      margin:0;
      font-family:"Microsoft YaHei","微软雅黑",Arial,sans-serif;
      background:#fff;
      color:#222;
      scroll-behavior:smooth;
    }
    .container{
      max-width:900px;
      margin:0 auto;
      padding:20px;
      box-sizing:border-box;
    }

    /* 顶部按钮组（图片上方居中） */
    .top-buttons{
      display:flex;
      justify-content:center;
      gap:20px;
      margin-bottom:15px;
    }
    .top-buttons a{
      display:inline-block;
      background-color:#0078d7;
      color:#fff;
      padding:10px 20px;
      border-radius:6px;
      text-decoration:none;
      transition:background 0.3s;
      font-size:15px;
    }
    .top-buttons a:hover{
      background-color:#005fa3;
    }

    /* 图片展示 */
    .images{
      display:flex;
      flex-direction:column;
      align-items:center;
      gap:20px;
      margin-bottom:30px;
    }
    .images img{
      width:100%;
      max-width:800px;
      height:auto;
      border-radius:10px;
      box-shadow:0 6px 14px rgba(0,0,0,0.08);
    }

    h1{
      font-size:20px;
      text-align:center;
      margin:0 0 20px 0;
    }
    .text-block{
      background:rgba(255,255,255,0.9);
      padding:16px;
      border-radius:8px;
      box-shadow:0 6px 18px rgba(0,0,0,0.06);
      white-space:pre-wrap;
      line-height:1.6;
      font-size:14px;
    }
    hr.sep{
      border:0;
      height:1px;
      background:linear-gradient(90deg,transparent,#ddd,transparent);
      margin:20px 0;
    }

    /* 底部按钮 */
    .buttons{
      display:flex;
      justify-content:center;
      gap:20px;
      margin-top:40px;
    }
    .buttons a{
      display:inline-block;
      background-color:#0078d7;
      color:#fff;
      padding:10px 20px;
      border-radius:6px;
      text-decoration:none;
      transition:background 0.3s;
      font-size:15px;
    }
    .buttons a:hover{
      background-color:#005fa3;
    }
  </style>
</head>
<body id="top">

  <div class="container">

    <!-- 顶部按钮（位于图片上方并居中） -->
    <div class="top-buttons">
      <a href="Contents.html#047">返回目录</a>
      <a href="#bottom">一键到底</a>
    </div>

    <!-- 图片展示 -->
    <div class="images" aria-label="相关图片">
      <a href="https://pic.moebox.io/image/01.4wyZY5"><img src="https://image.acg.lol/file/2025/10/19/01.jpg" alt="01" border="0"></a>
<a href="https://pic.moebox.io/image/02.4wyOQU"><img src="https://image.acg.lol/file/2025/10/19/02.jpg" alt="02" border="0"></a>
<a href="https://pic.moebox.io/image/03.4wyRGO"><img src="https://image.acg.lol/file/2025/10/19/03.jpg" alt="03" border="0"></a>
<a href="https://pic.moebox.io/image/04.4wynOa"><img src="https://image.acg.lol/file/2025/10/19/048db57c275c5a2a9d.jpg" alt="04" border="0"></a>
<a href="https://pic.moebox.io/image/05.4wy8Dl"><img src="https://image.acg.lol/file/2025/10/19/052a7dbea0c6095d0f.jpg" alt="05" border="0"></a>
<a href="https://pic.moebox.io/image/06.4wyih2"><img src="https://image.acg.lol/file/2025/10/19/066d235bdc0ea21e6d.jpg" alt="06" border="0"></a>
<a href="https://pic.moebox.io/image/07.4wyaMD"><img src="https://image.acg.lol/file/2025/10/19/07f4161aeb9b2bbd18.jpg" alt="07" border="0"></a>
<a href="https://pic.moebox.io/image/08.4wypkC"><img src="https://image.acg.lol/file/2025/10/19/088a1d46365be129e6.jpg" alt="08" border="0"></a> 
    </div>
    
    <h1>20世纪中华歌坛名人百集珍藏版 - 佟铁鑫 </h1>

    <div class="text-block">
20世纪中华歌坛名人百集珍藏版-佟铁鑫[lwg188原创][wav]

专辑：20世纪中华歌坛名人百集珍藏版
演唱：佟铁鑫
语言：国语
公司：中国唱片总公司
日期：1998年

本系列系统介绍二十世纪中国歌坛的名人名歌、收录了百余名演唱者的曲目，每位演唱者均选收其代表作品。按民族、美声、通俗不同风格精心编排，曲曲动人，它可以说是本世纪中国声乐发展的缩影，无论欣赏、收藏决不会令您失望！

曲目

01 夕阳红
02 男子汉去飞行
03 多情的土地
04 我爱祖国的蓝天
05 小夜曲
06 听，国旗的飘扬声
07 年轻的心
08 寻找回来的世界
09 喀秋莎
10 信赖
11 人生是一个海
12 走吧，朋友
13 今夜难眠
14 斗牛士之歌
15 我就是天空
16 第十一届亚洲运动会会歌
    </div>

    <hr class="sep">

    <div class="text-block">
Exact Audio Copy V0.99 prebeta 1 from 25. May 2007

EAC 抓取日志文件从11. 十一月 2010, 18:26

佟铁鑫 / 20世纪中华歌坛名人百集珍藏版

使用驱动器  ：PIONEER DVD-RW  DVR-115   Adapter: 0  ID: 0

读取模式     : 保护
使用精确流   : 是
废除音频缓冲 : 是
使用 C2 指针 : 否

读取偏移校正                   : 38
读取 Lead-In 和 Lead-Out       : 否
用静音填充抓取中丢失偏移的采样 : 是
去除首尾静音块                 : 否
已用接口                       : Win NT 及 2000 本地 Win32 接口

所用输出格式 : 内部 WAV 函数
样本格式     : 44.100 Hz;16 Bit;立体声


被抓轨 CD 的 TOC

     音轨 |   开始   |   长度   | 起始扇区 | 结尾扇区 
    --------------------------------------------------
       1  |  0:00.00 |  3:13.55 |       0  |   14529  
       2  |  3:13.55 |  2:52.14 |   14530  |   27443  
       3  |  6:05.69 |  4:21.01 |   27444  |   47019  
       4  | 10:26.70 |  2:51.47 |   47020  |   59891  
       5  | 13:18.42 |  3:35.43 |   59892  |   76059  
       6  | 16:54.10 |  3:38.44 |   76060  |   92453  
       7  | 20:32.54 |  2:20.61 |   92454  |  103014  
       8  | 22:53.40 |  3:19.70 |  103015  |  118009  
       9  | 26:13.35 |  1:45.57 |  118010  |  125941  
      10  | 27:59.17 |  4:19.55 |  125942  |  145421  
      11  | 32:18.72 |  2:49.60 |  145422  |  158156  
      12  | 35:08.57 |  2:41.63 |  158157  |  170294  
      13  | 37:50.45 |  4:06.45 |  170295  |  188789  
      14  | 41:57.15 |  3:27.17 |  188790  |  204331  
      15  | 45:24.32 |  4:08.65 |  204332  |  222996  
      16  | 49:33.22 |  4:51.45 |  222997  |  244866  


范围状态及错误

已选择范围

     文件名 E:\文件夹\20世纪中华歌坛名人百集珍藏版-佟铁鑫[lwg188原创]\佟铁鑫 - 20世纪中华歌坛名人百集珍藏版.wav

     峰值电平 100.0 %
     范围质量 100.0 %
     复制 CRC 1F60EAE6
     复制成功

没有错误发生

状态报告结尾
    </div>

    <!-- 底部按钮 -->
    <div id="bottom" class="buttons">
      <a href="https://url53.ctfile.com/f/25713053-8461888222-471307?p=1024" download>下载</a>
      <a href="Contents.html#047">返回目录</a>
      <a href="#top">回到顶部</a>
    </div>

  </div>

</body>
</html>

